<!-- <?xml version="1.0" standalone="no"?>
<!DOCTYPE svg PUBLIC "-//W3C//DTD SVG 20010904//EN"
 "http://www.w3.org/TR/2001/REC-SVG-20010904/DTD/svg10.dtd"> -->
<svg version="1.0" xmlns="http://www.w3.org/2000/svg"
 width="2733.000000pt" height="683.000000pt" viewBox="0 0 2733.000000 683.000000"
 preserveAspectRatio="xMidYMid meet">

<g transform="translate(0.000000,683.000000) scale(0.100000,-0.100000)"
fill="#000000" stroke="none">
<path d="M3602 4908 c-14 -7 -27 -28 -36 -58 -45 -153 -159 -307 -471 -640
-96 -102 -188 -205 -206 -230 -70 -96 -126 -273 -118 -368 l4 -37 -140 -1
c-156 -1 -230 -15 -324 -64 -68 -36 -107 -69 -156 -135 -29 -38 -51 -55 -98
-75 -89 -38 -174 -95 -191 -129 -20 -38 -7 -77 29 -91 29 -11 50 -5 89 27 37
30 106 65 174 87 43 15 56 25 77 61 38 63 113 129 176 152 80 31 201 46 295
39 89 -7 292 -47 366 -72 l47 -15 -52 -77 c-101 -146 -149 -300 -129 -416 14
-83 26 -112 57 -132 21 -14 30 -14 55 -4 37 15 47 48 31 102 -42 137 24 313
172 466 80 82 129 115 377 252 663 365 947 559 1122 766 l73 85 18 -43 c64
-149 77 -347 32 -501 -42 -146 -110 -264 -224 -390 -67 -74 -77 -111 -41 -147
35 -35 60 -25 135 53 73 75 128 151 181 250 l31 58 17 -53 c59 -178 14 -361
-131 -534 -78 -95 -84 -139 -22 -163 39 -14 66 4 139 96 128 159 175 293 167
473 -3 85 -10 121 -35 189 -18 46 -41 99 -52 119 -20 34 -21 40 -9 141 22 197
-21 402 -122 573 -57 96 -109 103 -157 21 -79 -135 -225 -278 -442 -433 -148
-106 -295 -194 -660 -395 -157 -87 -316 -178 -353 -203 l-69 -45 -86 27 c-48
14 -116 32 -151 40 -35 8 -68 19 -73 24 -18 18 -11 144 11 206 33 93 68 144
185 266 252 262 439 491 517 634 l27 48 21 -56 c31 -85 41 -133 41 -216 0 -94
-21 -182 -66 -283 -30 -67 -34 -83 -25 -103 13 -30 52 -48 84 -41 29 8 85 122
117 237 25 93 28 267 5 355 -39 150 -149 320 -203 314 -4 0 -17 -5 -30 -11z"/>
<path d="M13279 4255 c-135 -33 -226 -96 -276 -192 -56 -106 -58 -128 -58
-603 0 -421 1 -437 22 -506 64 -203 223 -294 515 -294 317 0 486 103 533 327
21 100 21 871 0 961 -21 86 -55 150 -108 199 -98 91 -212 123 -426 122 -86 0
-169 -6 -202 -14z m372 -131 c119 -35 193 -110 224 -229 12 -48 15 -126 15
-417 0 -214 -4 -377 -11 -406 -15 -70 -66 -150 -123 -194 -73 -54 -144 -70
-296 -66 -118 3 -129 5 -192 36 -75 37 -118 84 -151 165 -21 49 -22 72 -25
422 -4 394 1 452 43 535 41 80 103 129 196 154 75 20 251 20 320 0z"/>
<path d="M13325 4090 c-75 -24 -137 -76 -173 -144 l-27 -51 -3 -399 c-3 -458
-2 -471 75 -556 68 -76 115 -93 259 -98 201 -7 299 37 364 163 l35 68 0 396
c0 448 -2 466 -77 547 -62 67 -120 87 -268 91 -103 2 -135 0 -185 -17z m285
-160 c46 -23 73 -59 91 -120 19 -61 20 -626 2 -686 -29 -95 -85 -139 -189
-150 -75 -8 -134 8 -180 48 -66 58 -68 68 -72 413 -4 349 1 395 51 452 44 50
79 62 175 63 63 0 92 -5 122 -20z"/>
<path d="M14735 4256 c-90 -24 -136 -45 -199 -90 -72 -51 -106 -93 -144 -174
-24 -51 -27 -69 -27 -162 0 -98 3 -110 33 -171 60 -125 201 -232 426 -323 148
-61 206 -106 226 -177 26 -94 -54 -179 -169 -179 -87 1 -166 57 -220 157 -14
27 -32 48 -38 48 -12 0 -210 -163 -234 -191 -17 -20 36 -119 95 -177 125 -125
340 -183 541 -146 184 34 319 172 361 368 31 149 8 274 -71 374 -80 101 -148
144 -487 306 -131 62 -170 131 -110 191 52 51 167 64 240 26 35 -18 85 -65
129 -121 l31 -40 116 80 c64 43 116 83 116 88 0 5 -15 37 -32 71 -46 85 -139
176 -224 217 -65 31 -77 33 -189 36 -78 1 -138 -2 -170 -11z m287 -159 c63
-31 156 -123 140 -139 -6 -6 -27 9 -62 46 -64 67 -132 97 -229 98 -227 3 -372
-149 -320 -336 18 -67 88 -129 208 -187 242 -116 290 -142 344 -185 109 -85
142 -156 135 -284 -12 -207 -190 -341 -402 -301 -94 17 -191 67 -242 124 -24
27 -44 53 -44 57 0 24 21 15 49 -21 127 -158 396 -186 523 -55 55 56 80 119
86 208 5 89 -12 137 -75 201 -56 58 -102 87 -303 187 -249 126 -306 181 -317
310 -13 138 75 253 225 296 28 8 83 12 138 11 75 -2 100 -7 146 -30z"/>
<path d="M7408 4249 c-17 -9 -18 -57 -18 -777 0 -422 4 -773 8 -780 7 -10 98
-12 423 -10 l414 3 0 145 0 145 -262 3 -263 2 0 175 0 175 208 2 207 3 0 145
0 145 -207 3 -208 2 0 160 0 160 249 0 c137 0 256 3 265 6 24 9 24 289 0 298
-28 11 -798 6 -816 -5z m702 -144 c0 -13 -37 -15 -275 -15 l-275 0 0 -295 0
-295 225 0 c193 0 225 -2 225 -15 0 -13 -32 -15 -225 -15 l-225 0 0 -310 0
-310 275 0 c239 0 275 -2 275 -15 0 -13 -36 -15 -287 -13 l-288 3 -3 635 c-1
349 0 641 3 648 3 9 71 12 290 12 247 0 285 -2 285 -15z"/>
<path d="M8662 4252 c-10 -7 -12 -171 -10 -788 l3 -779 415 0 415 0 3 148 3
147 -266 0 -265 0 0 630 c0 612 -1 630 -19 640 -23 12 -260 13 -279 2z m156
-770 l2 -632 272 -2 c206 -2 272 -6 276 -15 3 -10 -59 -13 -287 -13 l-291 0 0
651 c0 516 3 650 13 647 9 -4 13 -142 15 -636z"/>
<path d="M10732 4252 c-9 -6 -12 -171 -10 -788 l3 -779 360 0 c312 0 367 2
415 17 126 39 227 130 269 243 34 92 44 238 38 605 -4 265 -8 347 -21 393 -44
157 -135 250 -291 294 -58 17 -741 31 -763 15z m679 -148 c115 -34 175 -82
218 -174 l26 -55 3 -403 3 -403 -24 -53 c-27 -58 -83 -119 -137 -146 -88 -45
-134 -51 -391 -48 l-244 3 -3 635 c-1 349 0 641 3 648 7 20 475 17 546 -4z"/>
<path d="M10890 3465 l0 -627 238 4 c282 6 325 16 417 99 90 83 90 83 90 509
0 334 -2 370 -20 430 -15 51 -30 76 -70 116 -81 81 -106 87 -402 92 l-253 4 0
-627z m475 466 c51 -23 101 -79 114 -128 15 -52 14 -615 0 -668 -15 -56 -92
-128 -152 -143 -25 -7 -102 -12 -171 -12 l-126 0 0 485 0 485 148 0 c120 0
154 -4 187 -19z"/>
<path d="M12231 4246 c-8 -10 -10 -224 -9 -787 l3 -774 150 0 150 0 3 779 c2
617 0 781 -10 788 -7 4 -72 8 -144 8 -99 0 -134 -3 -143 -14z m159 -781 c0
-378 -4 -655 -9 -655 -5 0 -12 7 -15 16 -8 21 -8 1279 1 1287 3 4 10 7 15 7 4
0 8 -295 8 -655z"/>
<path d="M16553 4253 c-7 -2 -13 -11 -13 -19 0 -18 397 -1500 410 -1531 9 -22
13 -23 165 -23 152 0 156 1 165 23 14 31 410 1510 410 1529 0 9 -7 19 -16 22
-28 11 -269 7 -281 -5 -6 -6 -70 -230 -144 -499 -73 -269 -134 -488 -136 -487
-1 2 -59 217 -128 478 -69 260 -130 484 -135 497 -9 21 -14 22 -147 21 -76 0
-144 -3 -150 -6z m356 -765 c108 -345 199 -624 203 -620 3 4 90 284 193 622
103 338 191 619 196 624 5 5 12 7 15 3 9 -9 -374 -1279 -391 -1296 -13 -13
-17 -13 -29 -1 -14 14 -406 1258 -406 1287 0 61 48 -73 219 -619z"/>
<path d="M18038 4249 c-17 -9 -18 -57 -18 -774 0 -420 3 -770 6 -779 9 -24
299 -24 308 0 3 9 6 359 6 779 0 745 0 765 -19 775 -25 13 -260 13 -283 -1z
m152 -784 c0 -430 -3 -655 -10 -655 -7 0 -10 225 -10 655 0 430 3 655 10 655
7 0 10 -225 10 -655z"/>
<path d="M18677 4248 c-15 -12 1 -79 192 -788 l208 -775 163 0 163 0 209 779
c167 619 207 781 196 787 -7 5 -75 9 -151 9 -133 0 -138 -1 -147 -22 -6 -13
-67 -232 -136 -488 -69 -256 -129 -468 -133 -473 -4 -4 -65 210 -135 475 -70
266 -132 489 -138 496 -7 8 -49 12 -142 12 -90 0 -138 -4 -149 -12z m311 -615
c220 -705 243 -775 248 -771 3 4 158 508 360 1176 17 56 30 82 41 82 8 0 13
-6 10 -13 -3 -7 -89 -294 -192 -637 -103 -344 -191 -633 -196 -642 -6 -10 -16
-18 -24 -18 -8 0 -18 8 -23 18 -9 17 -402 1274 -402 1286 0 3 6 6 13 6 8 0 69
-182 165 -487z"/>
<path d="M20162 4252 c-10 -7 -12 -171 -10 -788 l3 -779 150 0 150 0 3 779 c2
617 0 781 -10 788 -7 4 -71 8 -143 8 -71 0 -136 -4 -143 -8z m156 -782 c-2
-423 -6 -651 -13 -653 -7 -1 -11 222 -13 651 -2 577 0 652 13 652 13 0 15 -75
13 -650z"/>
<path d="M20912 4252 c-10 -7 -12 -171 -10 -788 l3 -779 420 0 420 0 0 145 0
145 -267 3 -268 2 0 175 0 175 210 0 210 0 0 150 0 150 -207 2 -208 3 -3 158
-3 157 251 0 c154 0 259 4 271 10 17 10 19 22 19 145 0 123 -2 135 -19 145
-23 12 -799 14 -819 2z m706 -144 c-4 -10 -70 -14 -276 -16 l-272 -2 0 -295 0
-295 220 -2 c138 -2 220 -7 220 -13 0 -6 -82 -11 -220 -13 l-220 -2 0 -310 0
-310 272 -2 c206 -2 272 -6 276 -15 3 -10 -59 -13 -287 -13 l-291 0 0 650 0
650 291 0 c228 0 290 -3 287 -12z"/>
<path d="M22161 4246 c-8 -10 -10 -224 -9 -787 l3 -774 150 0 150 0 5 395 5
395 174 -393 c138 -310 179 -394 195 -398 12 -2 80 -3 151 -2 l130 3 3 775 c2
720 1 776 -15 788 -11 8 -58 12 -143 12 -85 0 -132 -4 -143 -12 -15 -12 -17
-50 -19 -387 l-3 -373 -164 378 c-90 209 -168 382 -175 386 -6 4 -72 8 -147 8
-103 0 -139 -3 -148 -14z m466 -735 l308 -609 3 609 c2 532 4 609 17 609 13 0
15 -81 15 -656 0 -510 -3 -655 -12 -652 -7 3 -152 281 -323 619 l-310 614 -3
-617 c-1 -350 -6 -618 -11 -618 -5 0 -12 7 -15 16 -8 21 -8 1279 1 1287 3 4
10 7 14 7 4 0 146 -274 316 -609z"/>
<path d="M23468 4249 c-16 -9 -18 -27 -18 -144 0 -123 2 -135 19 -145 11 -6
89 -10 180 -10 l161 0 2 -632 3 -633 155 0 155 0 3 633 2 632 161 0 c91 0 169
4 180 10 17 10 19 22 19 145 0 123 -2 135 -19 145 -27 14 -979 13 -1003 -1z
m865 -144 c-2 -6 -70 -11 -173 -13 l-170 -2 -2 -633 c-3 -554 -5 -632 -18
-632 -13 0 -15 78 -18 632 l-2 633 -177 2 c-131 2 -177 6 -181 16 -3 10 73 12
370 10 242 -2 372 -7 371 -13z"/>
<path d="M24831 4246 c-8 -10 -10 -224 -9 -787 l3 -774 420 0 420 0 0 145 0
145 -262 3 -263 2 0 175 0 175 204 0 c177 0 205 2 210 16 8 20 8 248 0 268 -5
14 -33 16 -210 16 l-204 0 0 160 0 160 249 0 c137 0 256 3 265 6 24 9 24 289
0 298 -9 3 -195 6 -414 6 -323 0 -400 -3 -409 -14z m707 -138 c-4 -10 -70 -14
-276 -16 l-272 -2 0 -295 0 -295 225 0 c193 0 225 -2 225 -15 0 -13 -32 -15
-225 -15 l-225 0 0 -310 0 -310 272 -2 c206 -2 272 -6 276 -15 3 -10 -59 -13
-287 -13 l-291 0 0 650 0 650 291 0 c228 0 290 -3 287 -12z"/>
<path d="M2361 3084 c-28 -36 -27 -79 4 -109 50 -51 135 -17 135 54 0 76 -94
112 -139 55z"/>
<path d="M5490 2905 c-229 -42 -423 -121 -996 -408 -546 -273 -767 -347 -1032
-348 -136 0 -220 11 -352 45 -218 57 -447 182 -643 350 -98 83 -116 93 -149
75 -58 -30 -52 -71 19 -141 121 -116 278 -223 457 -309 236 -112 403 -152 641
-153 318 -2 521 64 1120 362 529 263 650 315 853 368 220 56 400 56 582 -2 66
-20 83 -22 104 -12 33 14 44 53 25 87 -16 30 -130 73 -239 90 -89 15 -299 12
-390 -4z"/>
</g>
</svg>
